<svg preserveAspectRatio="none" width="100%" height="100%" overflow="visible" style="display: block;" viewBox="0 0 180 180" fill="none" xmlns="http://www.w3.org/2000/svg">
<g id="ChatGPT Image Feb 24, 2026, 07_58_58 PM 1 [Vectorized]" clip-path="url(#clip0_0_4)">
<path id="Vector" d="M84.2189 0H95.7744C96.409 0.44183 98.3062 0.344726 99.1677 0.421669C109.974 1.38696 119.971 4.46982 129.678 9.21505C153.451 20.8296 170.92 42.3037 177.453 67.9435C178.481 71.8529 179.081 76.4494 179.597 80.4865C179.708 81.3509 179.659 83.7649 180 84.2084V95.9623C179.68 97.7825 179.589 99.958 179.346 101.841C178.882 105.154 178.249 108.441 177.449 111.69C172.188 132.775 159.487 151.25 141.687 163.716C131.697 170.671 120.428 175.579 108.531 178.156C106.639 178.576 98.5792 179.668 97.6783 180H81.8329C79.5224 179.365 77.1627 179.193 74.8185 178.784C72.7673 178.425 70.5581 177.903 68.5315 177.409C37.1433 169.728 12.2891 145.797 3.4258 114.722C2.5872 111.792 1.80174 108.788 1.29488 105.782C1.10019 104.627 0.2565 96.207 0.0519284 95.8948C0.0358239 95.8702 0.0173095 95.8474 0 95.8236V84.2542C0.438718 83.7005 0.246475 83.0617 0.294762 82.3927C0.629738 77.7528 1.36531 72.7805 2.51743 68.2849C8.87453 42.7289 26.1142 21.2437 49.6858 9.50075C54.7103 6.99404 59.0449 5.13765 64.4753 3.59511C67.7345 2.64389 71.0434 1.87182 74.3871 1.28234C75.703 1.06176 83.796 0.274155 84.1416 0.0545732C84.1681 0.0376464 84.1931 0.0181911 84.2189 0Z" fill="var(--fill-0, white)"/>
<path id="Vector_2" d="M55.9281 36.9984L99.4344 37.0246L113.273 37.0151C116.028 37.0139 121.79 36.5903 124.415 37.9076C125.566 38.4854 126.848 40.6809 126.897 42.1061C127.047 46.5042 126.969 50.9794 126.968 55.4078L126.963 82.7487L126.959 109.985C126.967 114.68 127.075 119.631 126.865 124.315C126.729 126.476 125.953 128.288 124.626 129.952C120.402 135.253 113.425 134.313 107.362 134.308L92.5743 134.3C88.5862 134.299 84.9922 134.204 81.0227 134.603C84.4151 134.924 87.7013 135.69 91.0401 136.341C96.5621 137.402 102.07 138.535 107.562 139.74C110.937 140.481 114.967 141.708 118.38 141.81C122.3 141.927 125.761 138.847 126.668 135.093C127.516 131.578 128.259 127.923 129.023 124.323C130.13 119.122 131.302 113.935 132.54 108.763C134.523 100.34 136.588 91.9366 138.736 83.5543C139.772 79.537 143.962 65.6318 143.797 62.7919C143.712 61.3141 143.042 60.3668 141.97 59.4016C141.19 58.8908 138.879 58.3777 139.064 57.4086C141.239 55.7733 145.779 59.7524 145.484 62.8585C145.129 66.5884 144.098 69.7108 143.124 73.2843C142.118 77.0099 141.132 80.7411 140.165 84.4771C137.89 93.4669 135.681 102.473 133.539 111.495C132.276 116.762 131.286 122.129 130.033 127.389C128.797 132.581 128.54 139.345 123.294 142.157C119.389 144.25 115.311 143.151 111.255 142.266C108.512 141.668 105.781 141.059 103.044 140.462C96.8352 139.149 90.6163 137.887 84.3877 136.675C80.4595 135.881 76.3817 134.935 72.4395 134.422C65.4729 133.526 57.1625 136.379 51.6178 130.802C47.9595 127.122 48.5223 122.674 48.5269 117.895L48.5381 106.869L48.5028 66.3318C44.1313 64.0772 40.1166 59.4956 39.8097 54.4273C39.6098 51.1277 41.3884 48.503 44.6743 47.847C44.9824 47.7854 45.1869 48.0716 45.3746 48.2546C45.2473 49.6561 42.8353 50.0695 42.2205 51.1847C39.3525 56.3878 44.7129 61.9386 48.5103 64.5056L48.5021 49.7406C48.4987 42.8989 47.0183 37.1475 55.9281 36.9984Z" fill="var(--fill-0, #010101)"/>
<path id="Vector_3" d="M97.212 38.5836L117.475 38.5796C124.391 38.5826 125.623 39.1558 125.378 46.3576C125.332 47.7125 125.374 49.3413 125.37 50.7173L125.349 66.3379L125.327 119.527L50.1321 119.534L50.1328 67.1961C52.1682 68.0331 53.2918 68.3218 55.4498 68.7458C56.4356 68.9395 60.2163 69.1142 60.5733 69.4336L60.6001 70.0928C60.6394 71.9835 60.6885 74.9668 60.5517 76.799C59.8293 86.4828 64.899 84.94 72.479 84.9241L87.0332 84.912L102.495 84.915C105.297 84.9152 108.125 84.9781 110.92 84.8009C112.922 84.674 114.903 82.5769 114.924 80.5806C114.977 75.4937 114.95 70.393 114.961 65.305C114.921 60.6632 115.822 55.7663 109.428 55.6922C105.95 55.652 102.416 55.7158 98.9397 55.7299L81.1992 55.7253L71.1916 55.7109C59.2694 55.6205 60.7129 56.4265 60.4754 67.5974C56.1152 67.5056 54.0919 67.0711 50.1168 65.4265L50.108 49.8259C50.1047 47.2191 50.0353 44.6258 50.2332 42.0263C50.3705 40.2235 52.068 38.8109 53.8045 38.7172C58.2344 38.4785 62.7674 38.6205 67.2198 38.6165L97.212 38.5836Z" fill="var(--fill-0, white)"/>
<path id="Vector_4" d="M53.8907 48.3908C59.4965 48.2565 65.4787 48.3485 71.1033 48.3485L102.352 48.3595L114.575 48.3579C116.565 48.35 118.859 48.2437 120.831 48.442C121.412 48.5003 121.532 48.6868 121.781 49.0704C121.645 49.4675 121.61 49.4754 121.274 49.751C117.489 49.9917 112.885 49.8753 109.019 49.8785L88.3459 49.8832L66.1329 49.8839C62.4642 49.8909 58.7556 49.876 55.0856 49.9177C54.6036 49.9231 54.0666 49.8213 53.7252 49.4525C53.643 48.7946 53.6222 49.0641 53.8907 48.3908Z" fill="var(--fill-0, #010101)"/>
<path id="Vector_5" d="M61.7312 93.154C66.3836 93.0823 112.073 93.0459 112.595 93.3358C112.823 93.7925 112.712 94.0512 112.601 94.5417C107.218 94.7485 62.4319 94.8115 61.7683 94.416C61.5347 93.7916 61.6252 93.8934 61.7312 93.154Z" fill="var(--fill-0, #010101)"/>
<path id="Vector_6" d="M61.7087 100.041L91.4365 100.037C93.1444 100.037 102.916 99.8615 103.959 100.224C104.273 100.736 104.166 100.685 104.146 101.383C100.782 101.572 96.4538 101.468 93.0217 101.467L73.6174 101.466C72.2313 101.467 62.3617 101.631 61.7159 101.23C61.5185 100.763 61.6134 100.545 61.7087 100.041Z" fill="var(--fill-0, #010101)"/>
<path id="Vector_7" d="M61.7126 106.931C67.8382 106.792 74.1739 106.95 80.3218 106.89C82.2027 106.872 88.76 106.793 90.1217 107.096C90.4479 107.562 90.3391 107.556 90.356 108.233C87.6611 108.403 62.7427 108.529 61.8332 108.223C61.5423 107.647 61.6549 107.677 61.7126 106.931Z" fill="var(--fill-0, #010101)"/>
<path id="Vector_8" d="M55.7654 42.5746C56.228 42.274 56.8468 42.4046 57.1486 42.8665C57.4504 43.3285 57.3214 43.9476 56.8601 44.2506C56.3973 44.5547 55.7754 44.4252 55.4725 43.9615C55.1695 43.4978 55.3008 42.8762 55.7654 42.5746Z" fill="var(--fill-0, #010101)"/>
<path id="Vector_9" d="M65.9579 42.5997C66.2616 42.4206 66.6404 42.4285 66.9366 42.6199C67.2326 42.8115 67.3951 43.1539 67.3562 43.5045C67.3174 43.855 67.0839 44.1534 66.7529 44.2754C66.3008 44.4422 65.7962 44.2364 65.5896 43.801C65.3829 43.3656 65.5427 42.8446 65.9579 42.5997Z" fill="var(--fill-0, #010101)"/>
<path id="Vector_10" d="M61.0207 42.564C61.4697 42.3823 61.9826 42.5809 62.1921 43.0175C62.4015 43.4544 62.2352 43.9787 61.8122 44.215C61.5143 44.3816 61.1485 44.3688 60.8627 44.1819C60.577 43.9951 60.4188 43.6649 60.4519 43.3252C60.4851 42.9854 60.7041 42.6922 61.0207 42.564Z" fill="var(--fill-0, #010101)"/>
<path id="Vector_11" d="M62.1979 67.3768C61.9318 66.6722 61.9669 64.6105 61.9511 63.8299C61.8238 62.6818 61.9464 58.4416 63.2195 57.8602C65.5552 56.7933 72.0626 57.1649 74.6047 57.1649L91.0698 57.1588L103.661 57.1563C105.814 57.1567 108.037 57.1236 110.185 57.2034C111.126 57.2384 111.825 57.6613 112.629 58.118C114.58 59.1543 113.804 63.8253 113.838 65.7879C113.86 67.0903 113.942 73.8012 113.628 74.4882C112.731 74.9255 111.11 72.8471 110.398 72.2501C107.036 69.4318 102.462 64.748 97.6915 67.3335C97.1014 67.6598 96.8672 67.7039 96.3573 68.1938L96.2698 68.5443C97.3742 69.4396 100.553 65.4335 104.613 68.8164C107.146 70.9262 112.385 73.948 113.848 77.3508C114.403 78.6479 113.79 83.1556 111.334 83.2667C108.157 83.6367 101.398 83.465 97.9604 83.4639C88.7534 83.3702 79.5456 83.3604 70.3383 83.4344C72.6441 80.6614 79.5714 72.8745 82.6195 71.3366C84.5351 72.2758 85.6308 73.3827 87.3673 74.5887C88.6563 74.8895 89.5577 76.3348 90.9069 76.4608L90.968 76.2207C90.649 75.3889 89.8868 75.2337 89.1223 74.4666C89.0815 73.7615 89.3496 74.0879 89.9035 73.2463C89.7124 72.7991 89.8402 72.9304 89.4514 72.6935L88.9771 73.4112L87.8878 73.4556C86.9623 72.971 84.3803 71.0313 83.7979 70.1963C82.2407 69.1845 80.7474 70.6602 79.6159 71.6453C75.4451 75.276 71.8866 79.3188 68.2075 83.4347C66.9825 83.4019 65.8083 83.4056 64.6033 83.3147C63.0868 83.2004 62.0374 81.3496 62.0473 79.9857C62.0692 76.9097 61.5632 72.1361 62.1251 69.185C62.3253 68.9273 62.3482 68.9286 62.431 68.6L62.2874 68.5487L62.2571 67.7958L62.4651 67.5977L62.1979 67.3768Z" fill="var(--fill-0, white)"/>
<path id="Vector_12" d="M89.3776 74.2403C91.6921 72.473 97.7667 68.0878 100.461 67.8973C104.236 67.6303 110.78 73.957 113.391 76.7195C113.475 79.6786 113.991 81.3431 111.334 83.2667C108.157 83.6367 101.398 83.465 97.9604 83.4639C88.7534 83.3702 79.5456 83.3604 70.3383 83.4344C72.6441 80.6614 79.5714 72.8745 82.6195 71.3366C84.5351 72.2758 85.6308 73.3827 87.3673 74.5887C88.0764 75.233 90.4546 77.622 91.4048 76.5533C91.2001 75.4355 90.2725 74.9185 89.3776 74.2403Z" fill="var(--fill-0, white)"/>
<path id="Vector_13" d="M62.1979 67.3768C63.8207 67.2669 66.3824 67.1136 67.6684 66.0797C70.2325 57.8261 76.9438 63.3009 75.3803 67.1514C74.9491 68.2088 74.1064 69.0453 73.0457 69.4684C72.0522 69.8498 70.9471 69.8172 69.9778 69.3775C69.182 69.0219 68.5916 68.4102 68.001 67.7795C66.4808 68.5858 63.8828 68.8516 62.1251 69.185C62.3253 68.9273 62.3482 68.9286 62.431 68.6L62.2874 68.5487L62.2571 67.7958L62.4651 67.5977L62.1979 67.3768Z" fill="var(--fill-0, #010101)"/>
<path id="Vector_14" d="M71.1105 63.5513C71.9485 63.3421 72.8341 63.6029 73.4247 64.2333C74.0153 64.8635 74.2182 65.7642 73.955 66.5868C73.6917 67.4095 73.0035 68.0251 72.1566 68.1952C70.8887 68.4501 69.6491 67.6461 69.3649 66.3843C69.0806 65.1226 69.8556 63.8648 71.1105 63.5513Z" fill="var(--fill-0, white)"/>
<path id="Vector_15" d="M112.629 58.118C114.58 59.1543 113.804 63.8253 113.838 65.7879C113.86 67.0903 113.942 73.8012 113.628 74.4882C112.731 74.9255 111.11 72.8471 110.398 72.2501C107.036 69.4318 102.462 64.748 97.6915 67.3335C97.1014 67.6598 96.8673 67.7039 96.3573 68.1938L96.2698 68.5443C97.3742 69.4396 100.553 65.4335 104.613 68.8164C107.146 70.9262 112.385 73.948 113.848 77.3508C114.403 78.6479 113.79 83.1556 111.334 83.2667C113.991 81.3431 113.475 79.6787 113.391 76.7196C110.78 73.957 104.236 67.6303 100.461 67.8973C97.7667 68.0878 91.6921 72.473 89.3776 74.2403C90.2725 74.9185 91.2001 75.4355 91.4049 76.5533C90.4546 77.622 88.0764 75.233 87.3673 74.5887C88.6563 74.8895 89.5577 76.3348 90.9069 76.4608L90.968 76.2207C90.649 75.3889 89.8868 75.2337 89.1223 74.4666C89.0815 73.7615 89.3496 74.0879 89.9035 73.2463C89.7124 72.7991 89.8402 72.9304 89.4514 72.6935L88.9771 73.4112L87.8878 73.4556C86.9623 72.971 84.3803 71.0313 83.7979 70.1963C84.8475 70.6468 87.1402 72.4625 88.1548 73.224C100.857 63.7799 101.547 63.8634 113.456 74.4358C113.317 71.2893 113.516 68.0885 113.481 64.9362C113.452 62.3677 113.812 60.487 112.629 58.118Z" fill="var(--fill-0, #302F2F)"/>
<path id="Vector_16" d="M50.1398 120.954L99.8 120.965C108.317 120.928 116.834 120.94 125.35 121.002C125.401 124.872 125.212 127.036 122.369 129.982C119.396 132.414 117.07 132.676 113.302 132.676C101.007 132.677 88.699 132.641 76.4054 132.638L65.1006 132.674C60.7321 132.679 56.1702 133.125 52.8045 129.722C50.2193 127.109 50.1277 124.369 50.1398 120.954Z" fill="var(--fill-0, white)"/>
<path id="Vector_17" d="M76.4388 126.508C82.0389 127.113 87.5698 127.702 93.1936 127.117C94.876 126.943 97.6148 126.519 99.1888 126.645C99.512 127.086 99.386 127.211 99.3637 127.874C94.911 128.934 80.5461 129.332 76.6564 127.838C76.3089 127.353 76.4378 127.24 76.4388 126.508Z" fill="var(--fill-0, #010101)"/>
<path id="Vector_18" d="M130.054 46.228C134.655 46.1862 137.262 49.3436 136.679 53.8393C136.035 58.7999 135.303 63.7527 134.664 68.7127C133.709 76.4733 132.875 84.2483 132.163 92.0348C131.997 93.8807 131.329 104.262 130.716 105.352C130.227 105.263 129.966 105.258 129.588 104.919C129.079 103.241 132.428 73.4388 132.899 69.7646L134.328 59.181C134.888 55.0663 136.656 48.7368 131.191 47.9222C130.821 47.867 130.135 47.6313 129.864 47.3628C129.742 46.8708 129.864 46.7047 130.054 46.228Z" fill="var(--fill-0, #010101)"/>
</g>
<defs>
<clipPath id="clip0_0_4">
<rect width="180" height="180" fill="white"/>
</clipPath>
</defs>
</svg>
